<?xml version="1.0" encoding="UTF-8"?>
<svg id="Layer_1" xmlns="http://www.w3.org/2000/svg" viewBox="0 0 901.9 978.1">
  <defs>
    <style>
      .cls-1 {
        fill: #fff;
      }
    </style>
  </defs>
  <g>
    <path d="M455.8,974.1c-61,0-120.2-12.8-176-38.2-53.8-24.4-102.1-59.4-143.6-104-41.5-44.5-74-96.4-96.8-154.2-23.5-59.8-35.5-123.3-35.5-188.7s11.9-128.9,35.5-188.7c22.7-57.8,55.3-109.6,96.8-154.2,41.5-44.6,89.8-79.6,143.6-104C335.6,16.8,394.8,4,455.8,4s103.8,9.5,152.7,28.4c47.2,18.2,91.1,44.6,130.3,78.5,38.9,33.6,72.2,73.5,98.9,118.7,27.2,46,46.8,96.2,58.2,149.1l1,4.8h-127.3l-.8-2.9c-2.9-9.9-6.3-19.7-10-29.3-49.9-128-166.3-212.3-296.4-214.7-1.9,0-3.8,0-5.7,0-177.7,0-325,154.1-328.5,343.4-3.2,172.7,110,319.8,269.2,349.9,3.6.7,7.2,1.3,10.9,1.9h.1c3.9.8,7.5,1.4,11.1,1.9,11.7,1.7,23.8,2.8,36,3.1,2.7,0,5.6.1,8.9.1,16.7,0,33.1-1.3,48.9-3.9,32.5-5.3,61.6-16,82-30.2,20.5-14.2,31.3-31,31.3-48.4s-16.5-41.9-46.5-57.5c-30.8-16-71.9-24.9-115.7-24.9s-30.1,1.1-44.6,3.2c-8.8,1.3-17.5,3-25.7,5-3.3.8-6.3,1.6-9,2.4l-5.2,1.5v-5.4c.2-7.5.6-15,1.2-22.4,1.2-14.9,3.5-29.8,6.8-44.3.5-2.3,1.1-4.8,1.8-7.7l.8-3h198.9c92.2,0,147,12.3,172.3,38.6,10.8,11.3,16,25.2,15.4,41.3h0c0,.1,0,.3,0,.3-1,9.7-1,22.9-1.1,35.6,0,18.9-.1,36.7-2.9,47.4-.5,2-1,4-1.6,6-7.7,27.7-19,53.3-33.6,76.3-2.2,3.4-4.4,6.8-6.7,10-18.1,25.6-39.6,46.1-64,60.7-.1,0-.3.2-.4.2-4,2.3-8,4.5-12,6.6h-.2c0,.1,0,.1,0,.1-62.2,32.8-129.2,49.5-199,49.5Z"/>
    <path d="M455.8,8c212.3,0,390,158.6,436.2,371.6h-119.4c-3-10.1-6.3-19.9-10.1-29.6-48.9-125.5-164.2-214.7-300.1-217.2-1.9,0-3.9,0-5.8,0-180.6,0-329,154.3-332.5,347.4-3.3,176,114.8,324.1,272.5,353.9,3.7.7,7.3,1.3,11,1.9,3.7.7,7.5,1.3,11.3,1.9,11.7,1.7,23.9,2.8,36.5,3.1,3,0,6,.1,9,.1,17.3,0,33.9-1.4,49.6-3.9,67.6-11,116.7-43.7,116.7-82.5s-74.4-86.4-166.2-86.4-30.8,1.1-45.1,3.2c-9,1.3-17.8,3-26.1,5.1-3.1.8-6.1,1.6-9.1,2.4.1-7.5.5-14.9,1.1-22.1,1.2-15,3.5-29.6,6.7-43.7.6-2.6,1.2-5.1,1.8-7.6h195.8c95.9,0,186.2,13,183.7,75.7-2.4,23.7.7,64.7-3.8,82.4-.5,2-1,3.9-1.6,5.9-7.7,27.6-18.9,53-33.1,75.2-2.1,3.4-4.3,6.7-6.6,9.9-17.6,24.9-38.9,45.3-62.9,59.7,0,0,0,0-.1,0-4,2.2-8,4.4-12,6.6,0,0-.1,0-.2,0-59.5,31.4-126.4,49-197.2,49-247.3,0-447.8-215.4-447.8-481.1S208.5,8,455.8,8M455.8,0c-61.6,0-121.4,13-177.6,38.5-54.3,24.7-103,60-144.9,104.9-41.8,44.9-74.6,97.2-97.6,155.4C12,359.1,0,423.1,0,489.1s12,129.9,35.7,190.2c22.9,58.2,55.7,110.5,97.6,155.4,41.9,45,90.6,80.3,144.9,104.9,56.3,25.6,116,38.5,177.6,38.5s70.6-4.4,104.8-13c33.2-8.4,65.5-20.8,96.1-37h.2c0,0,0-.1,0-.1,0,0,0,0,0,0,4-2.1,8-4.3,12-6.6.2-.1.4-.2.6-.3,24.8-14.9,46.7-35.7,65.1-61.8,2.3-3.3,4.6-6.7,6.8-10.2,14.8-23.3,26.3-49.3,34-77.3.5-1.8,1-3.8,1.6-6,2.9-11.2,2.9-29.3,3-48.4,0-12.6,0-25.6,1-35.2v-.3s0-.3,0-.3c.7-17.3-4.9-32.1-16.5-44.2-26.1-27.2-81.8-39.8-175.2-39.8h-202l-1.5,6c-.7,2.9-1.4,5.5-1.9,7.8-3.3,14.6-5.6,29.7-6.9,44.8-.6,7.5-1,15.1-1.1,22.7l-.2,10.8,10.4-3c2.6-.8,5.5-1.5,8.8-2.4,8.1-2,16.6-3.7,25.3-4.9,14.2-2.1,29-3.1,44-3.1,43.1,0,83.6,8.7,113.8,24.4,28.6,14.9,44.4,34,44.4,54,0,33.4-45.2,64.1-109.9,74.6-15.6,2.5-31.8,3.8-48.3,3.8s-6.1,0-8.7-.1c-12.1-.3-24-1.4-35.5-3.1-3.5-.5-7.2-1.1-11-1.8h-.1s-.1,0-.1,0c-3.6-.6-7.2-1.2-10.8-1.8-157.3-29.7-269.1-175.2-265.9-345.9,3.5-187.2,149.1-339.5,324.5-339.5,1.9,0,3.8,0,5.6,0,128.5,2.3,243.5,85.6,292.8,212.1,3.7,9.5,7,19.2,9.9,28.9l1.7,5.7h135.3l-2.1-9.7c-11.6-53.3-31.3-103.9-58.7-150.3-26.9-45.6-60.5-85.9-99.7-119.7-39.6-34.2-83.9-60.9-131.5-79.2C560.6,9.6,508.7,0,455.8,0h0Z"/>
  </g>
  <g>
    <path class="cls-1" d="M593.6,835.5c-3.2,2-6.6,3.9-9.9,5.6,3.3-1.8,6.6-3.7,9.9-5.6Z"/>
    <path d="M593.6,835.5c-3.3,1.9-6.6,3.8-9.9,5.6,3.4-1.7,6.7-3.6,9.9-5.6h0Z"/>
  </g>
  <g>
    <path class="cls-1" d="M450.4,934.6c-56.2,0-110.7-11.8-162-35.1-49.6-22.5-94-54.7-132.3-95.8-38.2-41-68.2-88.8-89.1-142-21.7-55-32.7-113.5-32.7-173.8s11-118.7,32.7-173.8c20.9-53.2,50.9-100.9,89.1-142,38.2-41,82.7-73.3,132.3-95.8,51.3-23.3,105.8-35.1,162-35.1s95.6,8.8,140.6,26.1c43.5,16.8,83.9,41.1,120,72.3,35.8,30.9,66.4,67.7,91,109.3,25,42.4,43.1,88.5,53.6,137.3l1,4.8h-117.8l-.8-2.9c-2.7-9.1-5.8-18.1-9.2-26.9-45.9-117.7-152.8-195.1-272.5-197.3-1.7,0-3.5,0-5.2,0-163.3,0-298.8,141.6-302,315.7-3,158.7,101.1,294,247.4,321.7,3.3.6,6.7,1.2,10,1.7h.1c3.6.7,6.9,1.3,10.2,1.7,10.8,1.6,21.9,2.5,33.1,2.9,2.5,0,5.2.1,8.2.1,15.3,0,30.4-1.2,45-3.5,61.2-9.9,104-39.5,104-71.9s-15.1-38.4-42.6-52.7c-28.3-14.7-66.1-22.8-106.3-22.8s-27.7,1-41,2.9c-8.1,1.2-16,2.7-23.6,4.6-3.1.8-5.8,1.5-8.2,2.2l-5.2,1.5v-5.4c.2-6.9.5-13.8,1.1-20.6,1.1-13.7,3.2-27.5,6.3-40.8.5-2.1,1-4.5,1.7-7.1l.8-3h183.3c85,0,135.4,11.3,158.8,35.6,10,10.4,14.8,23.3,14.3,38.2h0c0,.1,0,.3,0,.3-.9,8.9-.9,21-1,32.7,0,17.4,0,33.8-2.6,43.7-.5,1.8-1,3.7-1.5,5.5-7.1,25.5-17.5,49.1-30.9,70.3-2,3.1-4.1,6.2-6.2,9.2-16.7,23.6-36.5,42.4-58.9,55.9-.1,0-.2.2-.4.2-3.7,2.1-7.4,4.1-11,6h-.2c-57.3,30.3-119,45.7-183.3,45.7Z"/>
    <path d="M450.4,45.3c195.3,0,358.9,146,401.3,341.9h-109.8c-2.7-9.3-5.8-18.3-9.3-27.2-45-115.5-151.1-197.6-276.1-199.9-1.8,0-3.5,0-5.3,0-166.2,0-302.7,142-306,319.6-3,161.9,105.7,298.3,250.7,325.7,3.4.6,6.7,1.2,10.1,1.7,3.4.6,6.9,1.2,10.4,1.7,10.8,1.6,22,2.6,33.5,2.9,2.7,0,5.5.1,8.3.1,15.9,0,31.2-1.3,45.6-3.6,62.2-10.1,107.3-40.2,107.3-75.9s-68.5-79.5-152.9-79.5-28.3,1-41.5,3c-8.3,1.2-16.3,2.8-24,4.7-2.8.7-5.6,1.5-8.4,2.3.1-6.9.5-13.7,1-20.4,1.1-13.8,3.2-27.3,6.2-40.2.5-2.4,1.1-4.7,1.7-7h180.2c88.2,0,171.3,12,169.1,69.7-2.2,21.8.7,59.6-3.5,75.8-.5,1.8-.9,3.6-1.4,5.4-7,25.4-17.4,48.7-30.4,69.2-2,3.1-4,6.1-6.1,9.1-16.2,22.9-35.8,41.6-57.8,54.9,0,0,0,0-.1,0-3.6,2.1-7.3,4.1-11,6,0,0-.1,0-.2,0-54.7,28.9-116.3,45.1-181.4,45.1-227.6,0-412.1-198.2-412.1-442.6S222.9,45.3,450.4,45.3M450.4,37.3c-56.8,0-111.9,11.9-163.7,35.5-50,22.7-95,55.3-133.5,96.7-38.5,41.4-68.8,89.6-89.9,143.2-21.9,55.5-32.9,114.5-32.9,175.2s11.1,119.7,32.9,175.2c21.1,53.6,51.4,101.8,89.9,143.2,38.6,41.4,83.5,74,133.5,96.7,51.8,23.6,106.9,35.5,163.7,35.5s65.1-4,96.5-12c30.6-7.7,60.4-19.2,88.6-34.1h.2c0,0,0-.1,0-.1,0,0,0,0,0,0,3.6-1.9,7.4-4,11-6.1.2-.1.4-.2.6-.3,22.9-13.8,43.1-33,60.1-57,2.2-3.1,4.3-6.2,6.3-9.4,13.6-21.5,24.2-45.5,31.4-71.3.5-1.7,1-3.5,1.5-5.6,2.7-10.4,2.7-27,2.8-44.7,0-11.6,0-23.6,1-32.3v-.3s0-.3,0-.3c.6-16.1-4.6-29.9-15.4-41.2-24.2-25.1-75.6-36.8-161.7-36.8h-186.4l-1.5,6c-.7,2.7-1.2,5-1.7,7.2-3.1,13.5-5.2,27.4-6.3,41.3-.6,6.9-.9,13.9-1,20.9l-.2,10.8,10.4-3c2.4-.7,5.1-1.4,8.1-2.2,7.4-1.8,15.2-3.4,23.2-4.5,13.1-1.9,26.6-2.9,40.4-2.9,39.6,0,76.7,7.9,104.5,22.4,26.1,13.6,40.5,31,40.5,49.1,0,30.4-41.4,58.4-100.6,68-14.3,2.3-29.2,3.5-44.3,3.5s-5.6,0-8-.1c-11.1-.3-22-1.2-32.6-2.8-3.2-.5-6.6-1-10.1-1.7h-.1s-.1,0-.1,0c-3.3-.5-6.6-1.1-9.9-1.7-144.4-27.3-247.1-160.9-244.2-317.7,3.2-171.9,136.9-311.8,298-311.8,1.7,0,3.4,0,5.2,0,118,2.1,223.5,78.6,268.8,194.8,3.4,8.7,6.4,17.6,9.1,26.6l1.7,5.7h125.7l-2.1-9.7c-10.6-49.1-28.8-95.7-54.1-138.5-24.8-42-55.7-79.1-91.9-110.3-36.5-31.5-77.3-56.1-121.2-73-45.5-17.5-93.3-26.4-142-26.4h0Z"/>
  </g>
  <g>
    <path d="M450,908.6c-51.1,0-100.6-10.7-147.3-31.9-45-20.5-85.5-49.7-120.2-87-34.7-37.3-61.9-80.7-81-129-19.7-50-29.7-103.1-29.7-157.9s10-107.9,29.7-157.9c19-48.3,46.3-91.7,81-129,34.7-37.3,75.2-66.6,120.2-87,46.6-21.2,96.2-31.9,147.3-31.9s86.9,8,127.8,23.8c39.5,15.2,76.2,37.3,109.1,65.7,65.8,56.8,112.4,136.4,131.4,224.1l1,4.8h-107.7l-.8-2.9c-2.4-8.2-5.2-16.4-8.3-24.4-41.6-106.7-138.6-176.9-247-178.9-1.6,0-3.2,0-4.7,0-148.1,0-270.9,128.4-273.8,286.3-2.7,143.9,91.7,266.6,224.4,291.7,3,.6,6,1.1,9.1,1.5h.1c3.2.6,6.3,1.1,9.3,1.6,9.8,1.4,19.8,2.3,30,2.6,2.3,0,4.7.1,7.4.1,13.9,0,27.6-1.1,40.8-3.2,55.4-9,94.1-35.7,94.1-65s-13.7-34.6-38.5-47.5c-25.7-13.3-59.9-20.7-96.3-20.7s-25.1.9-37.1,2.7c-7.4,1.1-14.6,2.5-21.4,4.2-2.8.7-5.2,1.4-7.5,2l-5.2,1.5v-5.4c.2-6.3.5-12.6,1-18.8,1-12.5,2.9-25,5.7-37.1.4-2,.9-4,1.5-6.5l.8-3h166.7c77.3,0,123.2,10.3,144.5,32.4,9.2,9.5,13.6,21.3,13.1,35h0c0,.1,0,.3,0,.3-.8,8.1-.9,19.1-.9,29.7,0,15.8,0,30.7-2.4,39.8-.4,1.7-.9,3.3-1.3,5-6.4,23.2-15.9,44.7-28.1,63.9-1.8,2.8-3.7,5.7-5.6,8.4-15.2,21.5-33.2,38.6-53.6,50.9-.1,0-.2.2-.4.2-3.3,1.9-6.7,3.7-10,5.5h-.2c-52.1,27.6-108.1,41.5-166.6,41.5Z"/>
    <path d="M450,100.8c177.3,0,325.9,132.5,364.4,310.4h-99.7c-2.5-8.4-5.3-16.6-8.4-24.7-40.9-104.9-137.1-179.4-250.7-181.5-1.6,0-3.2,0-4.8,0-150.9,0-274.8,128.9-277.8,290.2-2.7,147,95.9,270.8,227.6,295.7,3,.6,6.1,1.1,9.2,1.6,3.1.6,6.2,1.1,9.4,1.6,9.8,1.4,20,2.3,30.5,2.6,2.5,0,5,.1,7.5.1,14.4,0,28.3-1.1,41.4-3.3,56.5-9.2,97.5-36.5,97.5-68.9s-62.2-72.2-138.9-72.2-25.7.9-37.7,2.7c-7.5,1.1-14.8,2.5-21.8,4.2-2.6.7-5.1,1.3-7.6,2,.1-6.2.4-12.4.9-18.5,1-12.5,2.9-24.7,5.6-36.5.5-2.1,1-4.3,1.5-6.4h163.6c80.1,0,155.5,10.9,153.5,63.3-2,19.8.6,54.1-3.2,68.8-.4,1.7-.9,3.3-1.3,4.9-6.4,23-15.8,44.2-27.6,62.8-1.8,2.8-3.6,5.6-5.5,8.2-14.7,20.8-32.5,37.8-52.5,49.8,0,0,0,0-.1,0-3.3,1.9-6.6,3.7-10,5.5,0,0,0,0-.1,0-49.7,26.2-105.6,40.9-164.7,40.9-206.6,0-374.1-179.9-374.1-401.9S243.4,100.8,450,100.8M450,92.8c-51.7,0-101.8,10.9-148.9,32.3-45.5,20.7-86.4,50.3-121.5,88-35,37.6-62.6,81.5-81.8,130.3-19.9,50.5-30,104.1-30,159.4s10.1,108.9,30,159.4c19.2,48.8,46.7,92.6,81.8,130.3,35.1,37.7,75.9,67.3,121.5,88,47.2,21.4,97.3,32.3,148.9,32.3s59.2-3.7,87.8-10.9c27.8-7,54.9-17.4,80.6-31h.2c0,0,0-.1,0-.1,0,0,0,0,0,0,3.3-1.8,6.7-3.6,10-5.5.2-.1.4-.2.5-.3,20.9-12.6,39.3-30.1,54.8-52,2-2.8,3.9-5.7,5.7-8.6,12.4-19.5,22.1-41.4,28.6-65,.4-1.5.9-3.2,1.4-5.1,2.5-9.5,2.5-24.7,2.5-40.7,0-10.5,0-21.4.9-29.3v-.3s0-.3,0-.3c.6-14.8-4.2-27.6-14.2-37.9-22.1-23-68.9-33.7-147.3-33.7h-169.8l-1.5,6c-.6,2.4-1.1,4.6-1.6,6.6-2.8,12.2-4.7,24.9-5.8,37.6-.5,6.3-.9,12.7-1,19l-.2,10.8,10.4-3c2.2-.6,4.6-1.3,7.3-2,6.7-1.7,13.8-3,21-4.1,11.8-1.7,24.1-2.6,36.6-2.6,70.9,0,130.9,29.4,130.9,64.2s-37.3,52.3-90.7,61c-13,2.1-26.5,3.2-40.1,3.2s-5,0-7.3-.1c-10-.3-20-1.1-29.5-2.5-2.9-.4-6-.9-9.1-1.5h-.1s-.1,0-.1,0c-3-.5-6-1-8.9-1.5-130.8-24.7-223.7-145.7-221.1-287.7,2.9-155.7,123.9-282.4,269.8-282.4,1.6,0,3.1,0,4.7,0,106.8,1.9,202.4,71.2,243.4,176.4,3.1,7.9,5.8,16,8.2,24.1l1.7,5.7h115.6l-2.1-9.7c-9.7-44.7-26.2-87.1-49.2-125.9-22.6-38.2-50.7-72-83.5-100.4-33.2-28.7-70.3-51-110.3-66.4-41.4-15.9-84.8-24-129.2-24h0Z"/>
  </g>
</svg>